<?xml version="1.0" encoding="UTF-8" standalone="no"?>
<!-- Generator: Adobe Illustrator 25.4.1, SVG Export Plug-In . SVG Version: 6.00 Build 0)  -->

<svg
   xmlns:dc="http://purl.org/dc/elements/1.1/"
   xmlns:cc="http://creativecommons.org/ns#"
   xmlns:rdf="http://www.w3.org/1999/02/22-rdf-syntax-ns#"
   xmlns:svg="http://www.w3.org/2000/svg"
   xmlns="http://www.w3.org/2000/svg"
   xmlns:sodipodi="http://sodipodi.sourceforge.net/DTD/sodipodi-0.dtd"
   xmlns:inkscape="http://www.inkscape.org/namespaces/inkscape"
   version="1.1"
   id="Layer_1"
   x="0px"
   y="0px"
   viewBox="0 0 1600 1600"
   style="enable-background:new 0 0 1600 1600;"
   xml:space="preserve"
   sodipodi:docname="art101.svg"
   inkscape:version="0.92.5 (2060ec1f9f, 2020-04-08)"><metadata
   id="metadata19"><rdf:RDF><cc:Work
       rdf:about=""><dc:format>image/svg+xml</dc:format><dc:type
         rdf:resource="http://purl.org/dc/dcmitype/StillImage" /></cc:Work></rdf:RDF></metadata><defs
   id="defs17" /><sodipodi:namedview
   pagecolor="#ffffff"
   bordercolor="#666666"
   borderopacity="1"
   objecttolerance="10"
   gridtolerance="10"
   guidetolerance="10"
   inkscape:pageopacity="0"
   inkscape:pageshadow="2"
   inkscape:window-width="1848"
   inkscape:window-height="1016"
   id="namedview15"
   showgrid="false"
   inkscape:zoom="0.1475"
   inkscape:cx="44.067797"
   inkscape:cy="800"
   inkscape:window-x="72"
   inkscape:window-y="27"
   inkscape:window-maximized="1"
   inkscape:current-layer="Layer_1" />
<style
   type="text/css"
   id="style2">
	.st0{fill:#231F20;}
	.st1{fill:#F6F6F6;}
	.st2{fill:#F15E4C;}
	.st3{fill:#12B276;}
	.st4{fill:#E5B223;}
</style>
<path
   d="M 0 0 L 0 1600 L 1600 1600 L 1600 0 L 0 0 z M 359.40039 280 L 488.5 280 L 647.19922 761.59961 L 509.5 761.59961 L 491.69922 704.19922 L 354.69922 704.19922 L 337 761.59961 L 200 761.59961 L 359.40039 280 z M 667 280 L 841.5 280 C 962.1 280 1026.5996 358.49922 1026.5996 450.19922 C 1026.5996 512.89922 1000.3008 569.00078 946.30078 599.30078 L 1037.8008 761.59961 L 883 761.59961 L 815.90039 626.09961 L 804.59961 626.09961 L 804.59961 761.59961 L 667 761.59961 L 667 280 z M 1046.4004 280 L 1400 280 L 1400 407.30078 L 1290.6992 407.30078 L 1290.6992 761.59961 L 1159 761.59961 L 1159 407.30078 L 1046.4004 407.30078 L 1046.4004 280 z M 804.59961 405.40039 L 804.59961 501.09961 L 834.90039 501.09961 C 861.20039 501.09961 885.59961 485.20039 885.59961 452.90039 C 885.59961 421.90039 861.20039 405.40039 834.90039 405.40039 L 804.59961 405.40039 z M 423.90039 483.19922 L 392.30078 582.80078 L 454.19922 582.80078 L 423.90039 483.19922 z M 800.59961 824.09961 C 906.89961 824.09961 977.5 896.20039 977.5 993.40039 L 977.5 1150.6992 C 977.5 1249.1992 906.90078 1320 799.30078 1320 C 693.00078 1320 622.40039 1247.8992 622.40039 1150.6992 L 622.40039 993.40039 C 622.40039 894.90039 692.99961 824.09961 800.59961 824.09961 z M 316.80078 830.69922 L 450.80078 830.69922 L 450.80078 1185.8008 L 559.19922 1185.8008 L 559.19922 1313.4004 L 200 1313.4004 L 200 1185.8008 L 312.19922 1185.8008 L 312.19922 1013.1992 C 296.99922 1032.9992 271.30039 1042.3008 240.90039 1042.3008 L 234.30078 1042.3008 L 234.30078 912.69922 L 237.59961 912.69922 C 300.99961 912.69922 316.80078 865.09922 316.80078 830.69922 z M 1157.5996 830.69922 L 1291.5996 830.69922 L 1291.5996 1185.8008 L 1400 1185.8008 L 1400 1313.4004 L 1040.8008 1313.4004 L 1040.8008 1185.8008 L 1153 1185.8008 L 1153 1013.1992 C 1137.8 1032.9992 1112.0992 1042.3008 1081.6992 1042.3008 L 1075.0996 1042.3008 L 1075.0996 912.69922 L 1078.4004 912.69922 C 1141.8004 912.69922 1157.5996 865.09922 1157.5996 830.69922 z "
   id="path4"
   style="fill:#eaeaea;fill-opacity:1" />




</svg>