<?xml version="1.0" encoding="UTF-8" standalone="no"?>
<!-- Generator: Adobe Illustrator 25.4.1, SVG Export Plug-In . SVG Version: 6.00 Build 0)  -->

<svg
   xmlns:dc="http://purl.org/dc/elements/1.1/"
   xmlns:cc="http://creativecommons.org/ns#"
   xmlns:rdf="http://www.w3.org/1999/02/22-rdf-syntax-ns#"
   xmlns:svg="http://www.w3.org/2000/svg"
   xmlns="http://www.w3.org/2000/svg"
   xmlns:sodipodi="http://sodipodi.sourceforge.net/DTD/sodipodi-0.dtd"
   xmlns:inkscape="http://www.inkscape.org/namespaces/inkscape"
   version="1.1"
   id="Layer_1"
   x="0px"
   y="0px"
   viewBox="0 0 780 875"
   xml:space="preserve"
   sodipodi:docname="piss.svg"
   inkscape:version="0.92.5 (2060ec1f9f, 2020-04-08)"
   width="780"
   height="875"><metadata
   id="metadata19"><rdf:RDF><cc:Work
       rdf:about=""><dc:format>image/svg+xml</dc:format><dc:type
         rdf:resource="http://purl.org/dc/dcmitype/StillImage" /><dc:title></dc:title></cc:Work></rdf:RDF></metadata><defs
   id="defs17" /><sodipodi:namedview
   pagecolor="#ffffff"
   bordercolor="#666666"
   borderopacity="1"
   objecttolerance="10"
   gridtolerance="10"
   guidetolerance="10"
   inkscape:pageopacity="0"
   inkscape:pageshadow="2"
   inkscape:window-width="1848"
   inkscape:window-height="1016"
   id="namedview15"
   showgrid="false"
   inkscape:zoom="0.21453754"
   inkscape:cx="461.05444"
   inkscape:cy="-497.49368"
   inkscape:window-x="72"
   inkscape:window-y="27"
   inkscape:window-maximized="1"
   inkscape:current-layer="Layer_1" />
<style
   type="text/css"
   id="style2">
	.st0{fill:#231F20;}
	.st1{fill:#F6F6F6;}
	.st2{fill:#F15E4C;}
	.st3{fill:#12B276;}
	.st4{fill:#E5B223;}
</style>





<path
   style="fill:#eaeaea;fill-opacity:1"
   d="m 146.59855,873.4955 c -3.575,-0.4429 -8.3,-1.2553 -10.5,-1.8053 -2.2,-0.55 -6.925,-1.6369 -10.5,-2.4155 -3.575,-0.7785 -13.7,-3.3031 -22.5,-5.6101 -16.172997,-4.24 -22.463997,-5.3143 -41.499997,-7.0867 -18.237,-1.698 -26.8777,-4.6685 -34.3559,-11.8105 -8.4926,-8.1108 -11.1543,-15.3357 -11.1194,-30.1825 0.042,-17.8816 2.8898,-24.7991 16.4676,-40 5.4128,-6.0599 7.0077,-10.1733 7.0077,-18.0735 0,-7.2287 -2.5607,-19.8272 -5.9507,-29.2775 -1.5222,-4.2435 -6.2811,-20.9353 -11.019,-38.649 -3.8369,-14.345 -5.4276,-37.8394 -3.1822,-47 0.6067,-2.475 1.114,-6.6758 1.1275,-9.3352 0.023,-4.4635 -0.4182,-5.3472 -5.7355,-11.5 -6.9009005,-7.985 -9.2401055,-11.9983 -9.2401055,-15.8526 0,-4.0299 10.1181055,-33.1013 17.5109055,-50.3122 1.2994,-3.025 4.6014,-10.9 7.3379,-17.49998 9.1237,-22.00523 22.7785,-50.04443 31.8164,-65.33273 2.3841,-4.0329 4.3348,-7.5694 4.3348,-7.8589 0,-1.934 20.2536,-30.1666 30.2904,-42.2233 6.677797,-8.0218 12.392207,-14.8101 12.698707,-15.0851 0.3064,-0.275 1.389,-1.8054 2.4058,-3.4008 1.5017,-2.3562 1.75739,-4.2336 1.362,-10 -0.623,-9.0858 -4.0614,-16.8588 -9.70791,-21.9464 -4.354597,-3.9235 -13.189397,-8.6255 -16.239997,-8.6431 -0.93,-0.01 -1.9691,-0.4598 -2.309,-1.0098 -0.3399,-0.55 -1.4669,-1 -2.5045,-1 -2.1705,0 -26.7581,-22.7147 -30.4185,-28.1015 -3.542,-5.2125 -5.8838,-15.1583 -5.3061,-22.5352 0.6678,-8.5271 6.0084,-19.3055 12.9146,-26.0644 6.7443,-6.6006 20.2476,-13.5764 30.6012,-15.8086 13.330797,-2.8742 13.687397,-2.9979 14.049297,-4.877 0.5355,-2.7809 -3.8329,-15.4454 -7.490097,-21.7147 -3.8158,-6.5412 -6.791,-8.9481 -18.3459,-14.8415 -4.675,-2.3844 -10.3718,-5.8445 -12.6596,-7.689 -9.5766,-7.7214 -19.3404,-25.8392 -19.3404,-35.8883 0,-3.5918 0.3469,-4.4839 1.75,-4.5007 3.2744,-0.039 18.6852,-4.9857 20.1751,-6.4756 1.2272,-1.2272 1.2766,-2.0567 0.286,-4.7961 -0.6587,-1.8218 -1.6727,-5.5387 -2.2533,-8.2598 -1.3402,-6.2817 -2.4383,-10.5466 -4.4921,-17.4476 -2.9623,-9.9533 -6.3483,-22.6668 -6.4301,-24.143 -0.1016,-1.8339 3.5007,-1.5156 7.6169,0.6731 2.555,1.3584 5.2088,2.4699 5.8975,2.4699 1.9693,0 13.2032,5.0837 21.6991,9.8196 13.366797,7.451 16.292207,7.4342 19.656707,-0.1129 1.03149,-2.3137 3.27459,-7.2947 4.9848,-11.0689 1.71019,-3.7743 3.1094,-7.2897 3.1094,-7.812 0,-1.2905 4.0968,-10.4395 9.5719,-21.375996 5.79359,-11.5727 8.59319,-13.487 16.0439,-10.9706 2.68629,0.9073 6.9092,2.5818 9.38419,3.7211 10.082,4.6412 23.64121,9.0494 25.7543,8.3729 0.9601,-0.3073 3.07441,-2.6995 4.6983,-5.316 4.2784,-6.8931 20.7831,-28.886704 26.20511,-34.919904 1.5633,-1.7395 4.85809,-5.5645 7.3218,-8.5 7.66469,-9.1325 17.3996,-18.9706 20.2208,-20.4353 3.711,-1.9266 12.2337,-1.8251 14.22829,0.1695 1.33511,1.3351 1.5714,4.9437 1.5714,24 0,25.302204 -0.3985,24.281304 7.7145,19.7639 2.632,-1.4655 6.3605,-3.5432 8.2855,-4.6171 1.925,-1.0738 4.6945,-2.7997 6.1544,-3.8353 1.4599,-1.0357 2.93201,-1.883 3.27141,-1.883 0.3394,0 2.29489,-1.0644 4.3456,-2.3655 2.0507,-1.301 10.4786,-6.3382 18.7286,-11.1938 41.4622,-24.4029 47.1857,-27.7993 49.5,-29.3743 1.375,-0.9358 3.2211,-1.9689 4.1025,-2.2959 0.8814,-0.327 4.8235,-2.6590999 8.7602,-5.1824999 4.4914,-2.8789 8.292,-4.58799996 10.2026,-4.58799996 2.7422,0 3.3,0.57139996 5.6131,5.74999996 1.4126,3.1625 3.2035,8.4499999 3.9797,11.7499999 0.7762,3.3 1.6779,7.0373 2.0037,8.305 0.6333,2.4642 -0.19851,4.685 -7.93901,21.195 -14.7099,31.375304 -17.7228,38.192704 -17.7228,40.101604 0,1.7124 0.815,1.8984 8.3163,1.8984 4.574,0 10.7615,-0.4457 13.75,-0.9906 2.9885,-0.5448 10.3837,-1.4732 16.4337,-2.063 41.4862,-4.0445 49.4626,-4.9018 55.5602,-5.9712 3.0581,-0.5363 7.7831,-0.9842 10.5,-0.9953 2.7169,-0.011 7.8262,-0.4373 11.3541,-0.9472 4.115,-0.5949 7.0723,-0.575 8.25,0.055 2.2282,1.1925 2.4168,5.6443 0.4318,10.1942 -1.5756,3.6117 -9.8092,12.423096 -16.5559,17.717796 -2.4529,1.925 -6.7768,5.525 -9.6086,8 -5.1864,4.533 -10.4775,8.379 -22.4316,16.3052 -8.2872,5.4949 -8.9393,7.9355 -2.8203,10.5555 2.3762,1.0175 7.9203,3.0602 12.3203,4.5395 4.4,1.4793 8.9,3.0634 10,3.5202 5.8211,2.4175 8.4093,3.4059 12.5,4.7737 2.475,0.8276 5.85,2.1046 7.5,2.8379 1.65,0.7332 5.025,2.0053 7.5,2.8267 8.2733,2.7457 33.4541,13.6953 37.25,16.1976 2.9533,1.9469 3.75,3.1107 3.75,5.4778 0,5.4712 -6.14189,13.3303 -14.6714,18.7734 -5.24789,3.3489 -23.5579,10.1925 -27.27009,10.1925 -1.1164,0 -4.0613,0.5434 -6.54421,1.2074 -7.61879,2.0378 -6.2396,4.3525 10.3006,17.2878 13.3521,10.4421 15.19741,13.206 15.16981,22.7227 -0.023,7.8202 -0.8403,8.6377 -6.5295,6.5291 -5.6079,-2.0784 -8.0135,-1.1648 -9.284,3.5261 -1.29961,4.798 0.79909,8.1881 6.2105,10.0319 4.2565,1.4504 17.6504,9.87 20.9499,13.1695 4.0231,4.0231 -3.2194,6.5169 -13.03651,4.4889 -5.85479,-1.2095 -14.62339,-5.0675 -15.7834,-6.9443 -0.3463,-0.5605 -1.4941,-1.0191 -2.5505,-1.0191 -2.4673,0 -7.9389,9.3314 -7.9518,13.5615 -0.01,3.3676 -0.01,3.3688 12.3337,15.2267 9.6613,9.2814 11.138,11.3307 9.4101,13.0586 -2.0003,2.0003 -3.9918,1.3277 -17.2844,-5.8373 -7.1328,-3.8448 -13.7012,-6.9948 -14.5964,-7 -1.9772,-0.012 -2.8675,1.0454 -6.3095,7.4905 -1.4686,2.75 -3.095,5.675 -3.6141,6.5 -0.5192,0.825 -2.5642,4.425 -4.5444,8 -1.9803,3.575 -4.9871,8.975 -6.6817,12 -1.6947,3.025 -3.5748,6.4 -4.1782,7.5 -2.389,4.3557 -16.1658,24.5085 -22.6905,33.1917 -3.7987,5.0555 -11.4343,13.4149 -16.9681,18.5765 -9.5972,8.9519 -10.1236,9.6582 -11.4103,15.3084 -3.8538,16.9239 -7.2083,25.841 -13.8898,36.9235 -13.4418,22.2954 -36.0657,43.4948 -56.9454,53.36 -9.7778,4.6198 -13.1104,5.0887 -36.3554,5.1155 -16.9539,0.019 -22.1762,-0.3005 -26,-1.5932 -2.6318,-0.8898 -5.01,-1.9048 -5.285,-2.2557 -0.275,-0.3509 -2.3,-1.9472 -4.5,-3.5473 -2.2,-1.6001 -5.3054,-4.1999 -6.9009,-5.7773 -3.1487,-3.1129 -5.2256,-3.1956 -4.8832,-0.1944 0.1187,1.0408 0.9062,7.3658 1.75,14.0555 0.8437,6.6898 1.5341,18.2922 1.5341,25.78333 0,12.31258 -0.2265,14.07278 -2.3596,18.33678 -1.2977,2.5942 -2.663,6.7418 -3.0338,9.2168 -0.3709,2.475 -1.3356,8.775 -2.1438,14 -0.8082,5.225 -1.6999,11.075 -1.9815,13 -1.2696,8.6791 -3.6767,22.8783 -4.5371,26.7643 -0.9879,4.4618 -1.2327,8.2357 -0.5341,8.2357 0.2255,0 6.188,-5.7688 13.25,-12.8195 7.7775,-7.7652 16.1912,-15.0455 21.3399,-18.4655 4.675,-3.1053 13.225,-9.3073 19,-13.7823 21.0819,-16.3362 37.8946,-26.2683 68.3424,-40.3732 5.4134,-2.50778 9.9812,-4.55948 10.1507,-4.55948 0.1696,0 4.0655,-1.7461 8.6576,-3.8801 4.5921,-2.134 11.9493,-5.33043 16.3493,-7.10313 4.4,-1.7727 9.35,-3.8042 11,-4.5144 5.0788,-2.1862 17.5708,-6.511 24.9652,-8.6431 30.1966,-8.7071 39.234,-10.7587 61.0348,-13.8554 16.7551,-2.3801 28.5475,-2.5178 43.7156,-0.5108 37.173,4.9186 54.5989,12.5147 90.28435,39.35583 18.63211,14.01418 26.8886,23.45558 39.4253,45.08278 8.91471,15.3788 14.5206,26.8842 18.0613,37.0683 2.2569,6.4913 2.259,6.5593 1.6085,51 -0.6635,45.3326 -1.3782,53.5 -4.6814,53.5 -2.033,0 -4.3504,-9.68 -7.4214,-31 -0.87149,-6.05 -2.6657,-15.275 -3.9871,-20.5 -1.3214,-5.225 -3.1075,-14.9 -3.9692,-21.5 -3.2,-24.5121 -6.0067,-32.3167 -18.8801,-52.5 -20.9995,-32.9239 -38.1766,-48.9459 -68.65585,-64.03878 -6.325,-3.1321 -12.625,-6.00793 -14,-6.39083 -1.375,-0.3829 -3.4,-1.0835 -4.5,-1.5569 -1.8372,-0.7907 -6.5651,-2.1497 -17,-4.8865 -2.2,-0.577 -9.625,-1.7929 -16.5,-2.7019 -14.2174,-1.88 -39.5561,-1.4054 -53.5,1.002 -17.0226,2.939 -20.8696,3.6968 -26.3418,5.1893 -3.112,0.8487 -7.9082,2.134 -10.6582,2.8562 -23.3582,6.13423 -55.5561,19.42861 -80,33.03171 -19.2275,10.7002 -24.1687,13.7276 -47.2009,28.9191 -29.958,19.7596 -66.8109,50.2936 -79.5787,65.9339 -2.7579,3.3785 -5.5177,6.5927 -6.1329,7.1427 -0.6151,0.55 -2.6824,3.025 -4.594,5.5 -1.9116,2.475 -4.1951,5.2951 -5.0746,6.2668 -3.4616,3.8251 -4.2688,6.3956 -2.7079,8.624 1.5515,2.2151 9.1051,10.9528 17.3253,20.041 2.7699,3.0625 6.8006,7.8182 8.957,10.5682 2.1564,2.75 7.1117,8.375 11.0117,12.5 3.9,4.125 8.411,9.3 10.0244,11.5 1.6133,2.2 4.4662,5.41 6.3396,7.1334 3.6793,3.3847 3.9749,4.9586 2.6351,14.0323 l -0.7627,5.1658 5.8793,3.628 c 27.3064,16.8502 33.4697,20.5405 34.3061,20.5405 0.5279,0 1.59461,0.9062 2.37041,2.0139 1.1152,1.5922 1.3124,5.0999 0.9418,16.75 -0.44941,14.123 -0.599,14.9857 -3.5956,20.7361 -1.71981,3.3 -5.8306,8.7552 -9.13511,12.1228 -4.9744,5.0692 -7.04079,6.4239 -12.0083,7.8725 -3.3,0.9624 -11.85,3.7482 -19,6.1908 -31.4212,10.7338 -41.83049,13.5999 -55.4738,15.2741 -9.6404,1.1829 -36.31079,1.1542 -46.0262,-0.05 z m 50.3203,-13.9174 c 5.4012,-0.5253 11.4762,-1.3871 13.5,-1.9151 2.0238,-0.5281 5.9297,-1.5053 8.6797,-2.1717 7.94601,-1.9255 30.8058,-10.9545 32.9722,-13.0232 1.9555,-1.8673 1.9504,-1.8832 -0.6109,-1.8832 -1.4208,0 -5.9083,1.0505 -9.9723,2.3344 -11.6788,3.6899 -21.0002,5.4284 -41.389,7.7197 -38.3122,4.3054 -50.2971,4.3754 -73,0.4265 -4.95,-0.861 -11.7,-2.0007 -15,-2.5326 -18.751697,-3.0226 -18.264197,-2.9936 -17.041097,-1.0146 0.3625,0.5866 1.5235,1.0666 2.5799,1.0666 1.0564,0 3.617297,0.6201 5.690997,1.378 10.3424,3.7803 30.536,8.7473 39.2702,9.6593 10.0365,1.048 43.3704,1.0209 54.3203,-0.044 z M 64.418953,842.3013 c 1.8228,-2.1964 -0.064,-3.489 -8.3324,-5.7083 -4.3934,-1.1793 -10.272,-2.7624 -13.0636,-3.518 -7.671,-2.0764 -7.6436,-2.0737 -8.1096,-0.8096 -0.6781,1.8395 6.2767,8.9005 9.9159,10.0672 4.8492,1.5546 18.2913,1.5332 19.5897,-0.031 z m 112.679597,-3.2137 c 22.3506,-1.3588 49.2623,-5.4455 63,-9.5669 28.2116,-8.4637 36.5,-13.0252 36.5,-20.0873 0,-5.4028 -4.902,-10.3265 -11.2119,-11.2615 -5.8303,-0.8639 -7.4493,-0.07 -15.5257,7.6181 -8.172,7.7785 -10.5405,7.7354 -11.2624,-0.2051 -0.4709,-5.1796 -0.8582,-5.7056 -3.7922,-5.15 -0.4358,0.082 -2.5033,3.075 -4.5946,6.65 -3.4092,5.828 -4.1285,6.4993 -6.9578,6.4936 -2.4551,-0.01 -3.5335,-0.6707 -4.8589,-3 -0.9369,-1.6465 -2.1552,-2.9936 -2.7074,-2.9936 -0.5521,0 -2.2605,1.6062 -3.7965,3.5693 -3.7202,4.755 -7.166,6.4307 -13.2239,6.4307 -4.5781,0 -5.0891,-0.2329 -5.6804,-2.5889 -0.3573,-1.4239 -0.1502,-4.2364 0.4603,-6.25 2.5184,-8.3061 3.0929,-11.6197 2.1739,-12.5387 -1.3868,-1.3868 -3.8093,1.0233 -6.6365,6.6026 -2.7923,5.5102 -3.5194,5.9169 -15.886,8.8849 -13.2056,3.1695 -30.6199,2.9785 -43.6047,-0.4781 -5.2826,-1.4063 -11.5826,-3.2072 -14,-4.0019 -18.227397,-5.9925 -27.438697,-5.2608 -31.303597,2.4866 -3.5856,7.1876 -1.0485,14.615 6.2451,18.2827 6.1858,3.1107 20.633897,7.1185 31.163197,8.6444 14.4024,2.0872 34.1986,3.7289 40.5,3.3587 3.3,-0.1938 10.05,-0.5987 15,-0.8996 z M 58.744753,816.902 c 2.2907,-2.0027 11.8538,-20.7241 11.8538,-23.2057 0,-2.4316 -3.0021,-5.41 -7.6999,-7.6393 -3.2309,-1.5331 -3.8271,-1.5069 -10.2783,0.4526 -11.9134,3.6186 -21.0218,12.874 -21.0218,21.3611 0,4.1768 2.6836,6.7087 9.5,8.9629 8.3449,2.7598 14.5404,2.7837 17.6462,0.068 z M 163.54195,795.6055 c 11.977,-4.3777 9.6019,-5.71 -11.4434,-6.4191 -9.35,-0.3151 -22.4203,-0.849 -29.0452,-1.1865 -10.189,-0.519 -12.2441,-0.3739 -13.3361,0.9419 -1.5265,1.8393 -0.6885,3.6441 1.6903,3.6404 1.7109,0 13.1762,2.4287 18.691,3.9635 1.65,0.4593 8.6313,0.8809 15.5141,0.9371 10.16,0.083 13.5328,-0.2703 17.9293,-1.8773 z m 64.8566,-11.2206 c 1.9727,-1.9727 1.3706,-4.7847 -1.2367,-5.776 -3.8674,-1.4704 -30.2337,-3.1373 -38.2022,-2.4152 -7.443,0.6744 -9.6057,2.1133 -6.745,4.4875 0.8235,0.6834 5.8592,1.6432 11.1906,2.1327 5.3313,0.4896 13.0683,1.2454 17.1933,1.6796 11.6429,1.2256 16.4953,1.196 17.8,-0.1086 z M 82.341153,775.7025 c -0.7638,-5.6944 -2.869,-9.4116 -6.2472,-11.0308 -3.8526,-1.8465 -14.0754,-1.5921 -17.1569,0.427 -5.0297,3.2956 -0.9923,10.7586 6.5333,12.0767 1.9955,0.3496 5.2032,0.9895 7.1282,1.4221 1.925,0.4325 5.0218,0.8317 6.8817,0.8869 3.3636,0.1 3.3789,0.08 2.8609,-3.7819 z m 33.257397,-2.4963 c 0,-0.7583 -1.3597,-1.9419 -3.0216,-2.6303 -4.7177,-1.9541 -13.267797,-11.1684 -15.889597,-17.124 -4.3174,-9.8071 -5.5738,-12.0307 -7.3388,-12.9881 -1.4916,-0.8091 -1.75,-0.4991 -1.75,2.0994 0,1.6769 0.4171,3.8302 0.9269,4.7852 0.5098,0.9551 2.2625,4.7233 3.8948,8.374 3.2577,7.2855 10.758897,15.6679 15.678297,17.5202 4.2667,1.6064 7.5,1.5907 7.5,-0.036 z m 39,-1.0676 c 5.225,-0.8033 12.425,-1.9473 16,-2.5424 3.575,-0.5951 9.2,-1.5071 12.5,-2.0266 3.3,-0.5195 14.3515,-0.9536 24.5589,-0.9646 14.418,-0.016 18.9916,-0.3366 20.4984,-1.4384 1.9019,-1.3907 1.8882,-1.5216 -0.7088,-6.75 -3.6298,-7.3075 -16.0153,-23.6255 -25.4935,-33.5879 l -7.855,-8.2562 -5.203,0.01 c -5.7368,0.01 -6.5136,0.2645 -20.5039,6.8028 -5.3388,2.495 -10.0107,5.249 -10.382,6.1199 -0.3713,0.8709 -0.7852,6.2256 -0.9198,11.8993 -0.3241,13.6678 -2.1211,17.2682 -12.7191,25.4832 -4.2747,3.3137 -7.7722,6.4631 -7.7722,6.9989 0,0.578 1.7282,0.7184 4.25,0.3453 2.3375,-0.3459 8.525,-1.2861 13.75,-2.0893 z m -19.6544,-12.7819 c 4.4489,-3.1424 6.5825,-5.9032 6.6211,-8.5672 0.03,-2.0942 -0.2952,-2.2436 -3.7167,-1.7056 -2.0625,0.3243 -5.325,0.9979 -7.25,1.4969 -1.925,0.499 -6.1977,1.5114 -9.4948,2.25 -6.7966,1.5223 -8.1236,3.5884 -4.3336,6.747 3.4938,2.9118 13.9184,2.7849 18.174,-0.2211 z m -65.107397,-5.9261 c 2.2327,-1.1605 3.1593,-4.9131 2.3191,-9.3919 l -0.6628,-3.533 -8.1972,0.2896 -8.1973,0.2896 -0.3024,5.8343 c -0.4094,7.8972 0.5988,8.9542 7.7174,8.0916 3.0718,-0.3721 6.3672,-1.0832 7.3232,-1.5802 z m 61.761797,-12.5463 11.5,-1.806 0.3033,-5.8592 c 0.3514,-6.7893 -1.3898,-9.6342 -5.8962,-9.6342 -3.5107,0 -13.1969,2.2817 -22.9071,5.396 l -7.5,2.4055 -0.3098,4.7222 c -0.4871,7.4246 -0.1215,7.794 7.0728,7.1446 3.4303,-0.3096 11.412,-1.3756 17.737,-2.3689 z m -70.326297,-13.246 c 2.6545,-0.5207 8.6513,-1.6677 13.3263,-2.549 4.675,-0.8813 10.525,-2.0068 13,-2.5011 2.475,-0.4943 6.3866,-1.1825 8.6924,-1.5292 5.164897,-0.7767 6.127497,-1.8814 6.965197,-7.993 0.6111,-4.4579 0.5179,-4.7621 -1.2487,-4.08 -8.363697,3.2296 -16.999697,5.5397 -32.408897,8.6694 -5.775,1.173 -12.2423,2.4865 -14.3718,2.919 -3.9562,0.8036 -5.5857,2.2824 -5.6129,5.0938 -0.031,3.1947 2.8944,3.689 11.6584,1.9701 z m 70.826297,-17.2145 c 4.4,-1.094 10.25,-2.371 13,-2.8379 12.7293,-2.1609 29.8406,-6.6159 32.7312,-8.5216 1.5839,-1.0443 1.4813,-1.3807 -1.2056,-3.955 -2.6358,-2.5252 -3.4282,-2.753 -7.7312,-2.2224 -2.6369,0.3252 -7.4944,1.462 -10.7944,2.5262 -3.3,1.0643 -9.6,2.6791 -14,3.5886 -14.3963,2.9756 -16.9564,3.6581 -20.4433,5.4505 -4.0523,2.0829 -7.6002,6.4443 -6.5822,8.0914 0.7796,1.2614 2.275,1.0505 15.0255,-2.1198 z m -78.192597,-2.9752 c 3.9559,-0.6249 7.739,-1.6374 8.4069,-2.25 0.9177,-0.8417 0.9831,-3.312 0.2677,-10.1137 -0.5205,-4.95 -0.9545,-11.5875 -0.9642,-14.75 -0.016,-5.0569 0.2193,-5.75 1.9489,-5.75 2.9877,0 8.4268,6.0757 9.9019,11.0608 2.8387,9.5935 4.7497,12.6475 8.3076,13.2766 5.2914,0.9357 22.488397,-1.8798 38.323797,-6.2744 6.3713,-1.7681 23.7124,-5.0575 26.998,-5.1212 1.6511,-0.032 5.477,-1.2696 8.502,-2.75 4.8762,-2.3866 5.5367,-3.0761 5.8237,-6.08 0.178,-1.8634 -0.4198,-6.3634 -1.3284,-10 -0.9087,-3.6365 -2.1172,-8.4955 -2.6857,-10.7979 -1.1671,-4.726 -2.0809,-5.3205 -9.8096,-6.3819 -3.025,-0.4155 -10.45,-1.4804 -16.49999,-2.3667 -6.05001,-0.8862 -14.6,-2.0143 -19,-2.507 -7.72701,-0.8652 -27.628707,-3.9308 -40.000007,-6.1614 -3.3,-0.5951 -12.8113,-1.3312 -21.1361,-1.6359 -17.6162,-0.6448 -15.6953,-2.0946 -17.6393,13.3128 -1.368,10.842 -0.7168,16.5791 3.0976,27.2899 1.104,3.1 3.0104,10.1363 4.2365,15.6363 2.3928,10.7339 3.4242,13.5 5.0339,13.5 0.5622,0 4.2588,-0.5113 8.2148,-1.1363 z M 177.53045,676.6805 c 1.1375,-1.5974 2.0681,-3.2291 2.0681,-3.626 0,-0.6975 5.6713,-15.3212 8.7141,-22.4696 0.8194,-1.925 1.8732,-4.4 2.3419,-5.5 8.7078,-20.4395 13.944,-34.4784 13.944,-37.3857 v -2.4138 l -9.0073,0.6393 c -13.5622,0.9627 -20.0149,4.3446 -25.9567,13.6041 -1.7845,2.7808 -3.8789,5.0561 -4.6543,5.0561 -0.7754,0 -3.5438,-2.2727 -6.152,-5.0504 -5.4075,-5.759 -5.54,-5.8071 -27.2297,-9.8827 -13.6207,-2.5594 -16.9058,-3.0473 -31,-4.6035 -7.974997,-0.8806 -21.474997,-2.6774 -29.999997,-3.9928 -18.5707,-2.8655 -39.5836,-4.846 -41.1493,-3.8784 -1.3813,0.8537 -0.3804,18.0646 1.1583,19.9186 0.5554,0.6693 3.8181,1.4813 7.2504,1.8045 3.4324,0.3231 10.7406,1.3024 16.2406,2.1761 9.5088,1.5105 13.024,2.024 30.5,4.4554 4.125,0.5739 9.75,1.4752 12.5,2.0028 2.75,0.5276 10.174997,1.6855 16.499997,2.5731 6.325,0.8876 13.75,2.0086 16.5,2.4911 2.75,0.4826 9.9453,1.6575 15.9895,2.611 10.9659,1.7299 10.9993,1.7437 15.5686,6.4348 4.2161,4.3285 4.7208,5.4044 6.3664,13.5708 0.983,4.8782 2.1775,10.2195 2.6545,11.8696 0.477,1.65 1.132,5.1375 1.4554,7.75 0.6886,5.5613 2.3477,6.1287 5.3975,1.8456 z m -39.9671,-81.0299 c 0.5694,-1.0638 1.0352,-2.8157 1.0352,-3.893 0,-4.1375 8.7913,-4.5248 11.9368,-0.526 l 2.0819,2.6467 21.2406,-0.5817 c 19.5446,-0.5353 21.7915,-0.7866 28.1388,-3.1472 3.794,-1.411 7.5325,-3.092 8.3078,-3.7354 2.0494,-1.7008 3.962,-6.7794 4.7725,-12.672 0.581,-4.2247 0.422,-5.2581 -0.8863,-5.7602 -1.4129,-0.5422 -10.5647,1.2143 -19.0921,3.6642 -2.9616,0.8509 -23.8708,4.8517 -36.5,6.984 -13.6792,2.3096 -14.3991,2.293 -19.822,-0.4549 -5.2495,-2.6602 -13.3983,-4.3156 -25.678,-5.2167 -3.85,-0.2825 -7.9,-0.8908 -9,-1.3519 -1.1,-0.461 -6.274997,-1.3751 -11.499997,-2.0312 -18.1256,-2.2759 -31.8046,-4.4241 -44.8527,-7.0437 -2.944,-0.5911 -5.644,-0.7873 -6,-0.4361 -1.2358,1.2193 -5.9282,15.8967 -5.4667,17.0994 0.5689,1.4825 2.7325,2.0446 15.1193,3.9281 5.335,0.8112 11.9501,1.9083 14.7001,2.4381 2.75,0.5297 9.5,1.6911 15,2.5808 5.5,0.8897 12.025,1.9749 14.5,2.4115 2.475,0.4366 8.099997,1.3252 12.499997,1.9746 4.4,0.6494 9.3819,1.6029 11.071,2.1188 1.689,0.5159 4.389,0.9697 6,1.0083 1.6109,0.039 3.829,0.4571 4.929,0.9298 3.4006,1.4612 6.3825,1.088 7.4648,-0.9343 z m 29.5352,-32.9895 c 24.6219,-4.0063 40.5325,-8.7475 45.8031,-13.6489 2.3467,-2.1824 2.7538,-3.2842 2.5,-6.76708 -0.2957,-4.0586 -0.3886,-4.1571 -3.8031,-4.0317 -3.7801,0.1388 -13.617,1.4846 -24,3.2835 -3.575,0.6194 -9.65,1.5962 -13.5,2.17058 -3.85,0.5744 -9.475,1.4483 -12.5,1.942 -3.025,0.4936 -8.3125,1.1982 -11.75,1.5656 -5.9449,0.6355 -6.25,0.5626 -6.25,-1.4932 0,-3.63648 -2.5596,-8.53418 -5.0954,-9.74988 -1.3225,-0.634 -11.6296,-4.15333 -22.9046,-7.82063 -11.275,-3.6673 -21.399997,-7.049 -22.499997,-7.5149 -1.8102,-0.7666 -16.3995,-5.6453 -24.071,-8.0493 -6.0838,-1.9065 -7.122,-1.3989 -9.3572,4.5752 -1.1395,3.0456 -2.0718,5.7901 -2.0718,6.0988 0,0.3088 -0.6258,1.9794 -1.3906,3.7125 -2.5166,5.7028 -4.6094,11.66713 -4.6094,13.13623 0,1.679 2.9806,3.4485 7.9765,4.73528 10.4141,2.6825 16.025,4.0054 20.5235,4.8387 2.75,0.5095 8.375,1.6232 12.5,2.475 4.125,0.8518 9.524997,1.9626 11.999997,2.4684 2.475,0.5058 6.975,1.6403 10,2.5211 3.025,0.8808 7.75,2.1924 10.5,2.9146 2.75,0.7222 6.8,2.0186 9,2.8809 4.4083,1.7278 21.6694,1.6008 33,-0.2428 z m -5.616,-32.03171 c 1.9888,-0.5255 6.766,-1.6324 10.616,-2.4597 3.85,-0.8274 10.375,-2.2286 14.5,-3.1137 8.3204,-1.7855 12.1932,-2.6391 22.5,-4.9592 3.85,-0.8666 8.0125,-1.7949 9.25,-2.0629 2.8113,-0.6087 2.9814,-4.5344 0.6172,-14.2435 -2.3001,-9.4461 -2.682,-9.7144 -10.4507,-7.3399 -6.5045,1.988 -19.6738,5.0885 -32.4165,7.6319 -9.894,1.9749 -24.3814,1.975 -25.1392,2e-4 -0.8819,-2.298 0.372,-6.0268 3.1279,-9.302 3.2945,-3.9152 10.2609,-6.0835 21.7246,-6.7618 9.4599,-0.5597 11.2274,-0.8626 25.2867,-4.3329 4.4,-1.086 11.825,-2.9168 16.5,-4.0684 4.675,-1.1516 10.2093,-2.6093 12.2984,-3.2393 5.3027,-1.599 7.9629,-0.2898 12.4296,6.1172 4.5368,6.5077 7.0516,8.4637 14.2579,11.0901 4.7915,1.7463 7.9838,1.9994 25.2215,1.9994 18.7015,0 20.0222,-0.1268 25.2059,-2.4193 15.4078,-6.814 39.6043,-27.8683 50.1422,-43.6306 5.0836,-7.6037 17.0483,-35.7341 18.1892,-42.7646 l 0.5651,-3.4819 -18.8478,0.7312 -18.8477,0.7312 -7.5572,7.7946 c -11.1667,11.5174 -12.5597,12.0394 -32.1311,12.0394 -14.5432,0 -16.5252,-0.2088 -19.8799,-2.0943 -2.0494,-1.1518 -4.4222,-3.2893 -5.2729,-4.75 -1.9862,-3.4104 -3.2221,-10.7603 -1.9424,-11.5512 0.5345,-0.3303 3.8288,0.8235 7.3205,2.5642 5.6361,2.8096 7.2542,3.1538 14.4158,3.0663 13.2356,-0.1616 19.8505,-4.0365 26.0083,-15.235 1.0585,-1.9251 2.073,-3.725 2.2543,-4 0.1813,-0.275 8.2813,-0.7613 18,-1.0807 16.0194,-0.5264 18.2276,-0.8202 23.635,-3.1441 6.651,-2.8584 7.5219,-4.0276 5.0416,-6.7683 -4.4896,-4.961 -16.8706,-7.7558 -20.4276,-4.6112 -2.2652,2.0026 -10.5483,4.6043 -14.6591,4.6043 -3.7769,0 -3.6542,0.099 -14.2618,-11.4878 -6.2127,-6.7862 -6.4677,-6.9425 -12.5,-7.6623 -7.9372,-0.947 -16.385,-2.4162 -25.1578,-4.3753 -3.85,-0.8598 -8.8,-1.9225 -11,-2.3616 -19.737,-3.9392 -49.5,-20.5289 -49.5,-27.591 0,-6.0958 7.5354,-5.7738 21.9562,0.9383 13.9811,6.5075 27.2992,10.6556 36.1528,11.2605 7.1384,0.4876 7.7105,0.3749 9.25,-1.823 2.9455,-4.2054 2.0748,-8.2173 -3.609,-16.6286 -2.8875,-4.2731 -5.7,-8.5241 -6.25,-9.4467 -1.1163,-1.8724 -10.7404,-15.8076 -13.8628,-20.0726 -1.1073,-1.5125 -2.6107,-2.75 -3.3408,-2.75 -0.7302,0 -4.583,2.6483 -8.562,5.885 -10.5383,8.5725 -11.9519,9.115 -23.7505,9.115 -5.5635,0 -10.9858,-0.4658 -12.0496,-1.0351 -2.3464,-1.2558 -2.4993,-4.7132 -0.3445,-7.7896 2.4702,-3.5267 1.306,-10.9874 -4.095,-26.2424 -5.2256,-14.7595 -5.3114,-16.6807 -0.955,-21.3813 2.1958,-2.3694 3.132,-2.7042 6.1781,-2.2099 7.9295,1.2868 29.2649,13.4344 41.2821,23.5045 14.1752,11.8785 26.955,29.6009 41.7553,57.9038 3.5232,6.7375 7.0157,12.25 7.761,12.25 0.7454,0 4.113,-3.375 7.4837,-7.5 6.7371,-8.2448 9.3228,-9.559 8.3616,-4.25 -0.7356,4.0633 -2.0139,9.5536 -2.9103,12.5 -0.4986,1.6388 -0.2764,2.25 0.8181,2.25 0.8265,0 3.4289,-3.2625 5.7832,-7.25 2.3543,-3.9875 4.7681,-7.5806 5.364,-7.9847 1.6092,-1.0912 5.3713,-0.9175 6.1127,0.2822 0.8599,1.3913 -1.3099,10.4455 -3.7031,15.4525 -1.0515,2.2 -2.1716,5.8601 -2.489,8.1336 l -0.5771,4.1335 3.8699,0.5518 c 10.3134,1.4705 16.0471,3.2115 26.0573,7.9122 6.5943,3.0966 11.0147,6.4306 20.0551,15.1261 l 7.2423,6.966 3.2577,-1.7951 c 3.1646,-1.7439 13.7386,-13.1175 16.0911,-17.3078 0.6416,-1.1429 4.0133,-6.2232 7.4928,-11.2897 6.2257,-9.0652 16.1737,-24.7285 16.1737,-25.4658 0,-0.2072 1.3763,-2.711 3.0585,-5.564 4.8434,-8.2144 6.9404,-14.7557 6.941,-21.6508 3e-4,-3.4447 -0.4424,-6.25 -0.9863,-6.25 -1.9855,0 -15.3071,-8.567 -16.7798,-10.7909 -1.1962,-1.8064 -1.2801,-2.8111 -0.3967,-4.75 1.4447,-3.1708 3.118,-3.1062 14.0039,0.5409 11.5402,3.8664 13.4325,3.8376 16.483,-0.25 5.0293,-6.7391 5.2636,-7.87 2.1456,-10.3562 -1.5404,-1.2283 -3.9636,-2.8261 -5.3849,-3.5508 -1.4214,-0.7247 -7.9843,-4.53 -14.5843,-8.4563 -6.6,-3.9263 -16.9278,-10.0496 -22.9507,-13.6074 -6.023,-3.5577 -11.423,-7.2555 -12,-8.2171 -1.3158,-2.1926 1.2102,-4.077 9.8773,-7.3689 8.0138,-3.0436 11.3178,-2.3798 17.3604,3.4879 2.5921,2.5172 6.738,5.4741 9.213,6.5711 7.7802,3.4481 12.2971,5.4048 19,8.2307 3.575,1.5072 7.5081,3.2138 8.7403,3.7925 1.7764,0.8343 2.6564,0.6755 4.25,-0.7667 3.4588,-3.1302 2.5512,-5.8923 -3.249,-9.887 -2.8922,-1.992 -5.5843,-3.6218 -5.9824,-3.6218 -0.9097,0 -25.7735,-15.7483 -31.5671,-19.9939 -2.3694,-1.7364 -4.1362,-3.673 -3.926,-4.3035 0.3409,-1.0226 24.0484,-11.7026 25.9774,-11.7026 0.4282,0 2.6862,-0.8383 5.0177,-1.863 4.9357,-2.1693 7.9919,-3.3915 24.2391,-9.6939 15.7238,-6.0994 16.0939,-6.3031 14.3667,-7.9087 -1.2271,-1.1405 -21.7585,-9.847 -31.0124,-13.151 -2.9481,-1.0526 -26.9878,-10.8008 -35.3543,-14.3364 -1.1,-0.4648 -3.575,-1.4116 -5.5,-2.104 -10.4815,-3.7698 -12,-4.8225 -12,-8.319 0,-7.9264 7.8989,-17.7197 24.5,-30.3761 16.0078,-12.2041 22.7449,-20.317296 15.75,-18.966996 -1.5125,0.292 -6.35,1.038 -10.75,1.6578 -25.9571,3.656596 -42.8696,6.146696 -48,7.067396 -2.75,0.4935 -8.825,1.4003 -13.5,2.0152 -4.675,0.6148 -11.425,1.5779 -15,2.1401 -12.5154,1.9683 -19.5145,2.5133 -21.2331,1.6535 -2.6338,-1.3178 -7.088,-11.459596 -6.4449,-14.674696 0.2974,-1.4873 1.8801,-5.6148 3.5171,-9.1722 1.637,-3.5574 5.0041,-10.968 7.4824,-16.468 2.4784,-5.500004 6.201,-13.600004 8.2725,-18.000004 6.5838,-13.9846 7.558,-17.5 4.8493,-17.5 -1.3127,0 -13.4723,5.9472 -18.4433,9.0205 -0.825,0.51 -6.45,3.9345 -12.5,7.6099 -13.4117,8.1478 -39.4147,25.351704 -60.4006,39.961804 -5.1704,3.5995 -11.0794,7.2162 -13.1311,8.0372 -3.4643,1.3861 -4.0496,1.3427 -8.201,-0.6087 -5.7831,-2.7184 -9.3111,-6.5282 -10.6686,-11.5207 -0.5981,-2.2 -1.0901,-9.7375 -1.0931,-16.75 -0.01,-10.356004 -0.2727,-12.750004 -1.4283,-12.750004 -2.1979,0 -14.536,15.208904 -25.5524,31.497904 -2.975,4.3988 -5.7819,8.4488 -6.2375,9 -0.4557,0.5512 -2.7317,3.911696 -5.0579,7.467796 -2.3262,3.5561 -6.1241,8.4554 -8.4397,10.8873 -3.7787,3.9686 -4.564,4.3642 -7.6638,3.8612 -3.9164,-0.6355 -24.1758,-10.1978 -29.9204,-14.1221 -4.6556,-3.1803 -6.7484,-3.2564 -9.4184,-0.3421 -2.2903,2.4998 -6.2872,10.0236 -6.2872,11.8352 0,0.6406 -1.083,3.696 -2.4066,6.7898 -3.8068,8.898 -10.5934,26.7181 -10.5934,27.8161 0,0.5494 -1.8248,3.8222 -4.0551,7.2729 l -4.0551,6.274 -4.1949,-0.6636 c -2.3072,-0.365 -9.0703,-3.1185 -15.029197,-6.119 -9.6135,-4.8407 -14.6657,-6.5386 -14.6657,-4.9289 0,0.2896 0.9539,4.2065 2.1198,8.7042 2.1704,8.3731 2.2816,20.7679 0.205,22.8445 -1.178,1.178 -11.6093,3.9248 -14.905,3.9248 -7.4898,0 -1.2125,12.2111 10.5147,20.454 2.7748,1.9503 5.2174,3.546 5.4281,3.546 0.2108,0 2.5779,0.9849 5.2603,2.1885 7.5961,3.4086 38.775297,13.6696 39.742497,13.0792 0.7995,-0.4881 0.6658,-2.1871 -0.9847,-12.515 -1.1608,-7.263 0.1592,-9.1297 7.6193,-10.7752 1.925,-0.4247 6.875,-1.6589 11,-2.7429 11.6878,-3.0712 14.7514,-3.4754 15.252,-2.0125 0.698,2.0396 -2.0687,5.7911 -9.5744,12.9827 -7.7977,7.4714 -7.8137,7.7904 -0.6188,12.3324 3.4407,2.1719 3.6356,2.6082 4.7428,10.6139 1.8151,13.1252 2.0333,16.4981 1.1587,17.9132 -0.8014,1.2966 -4.7999,0.67 -19.9603,-3.1282 -10.5161,-2.6346 -13.8516,-3.207 -15.3463,-2.6334 -1.452,0.5571 -1.6537,2.7903 -1.6537,18.3048 v 17.6703 l -6.25,-0.8208 c -3.4375,-0.4514 -10.525,-0.8514 -15.749997,-0.8889 -11.4029,-0.082 -16.7832,2.0554 -24.1404,9.5887 -6.21,6.3587 -7.8596,11.4994 -7.8596,24.4929 0,16.64 4.4801,24.1293 17,28.4188 4.6008,1.5762 9.7386,2.3648 17.584097,2.6987 8.8424,0.3764 11.2795,0.8016 12.0504,2.1023 0.5315,0.8968 2.923,7.7055 5.3145,15.1305 2.3915,7.425 4.9564,14.9181 5.6996,16.6512 0.7433,1.7331 1.35141,3.4037 1.35141,3.7125 0,0.3087 0.91769,3.0141 2.0394,6.012 l 2.0393,5.4507 5.71069,0.5148 c 25.0938,2.262 31.477,2.7258 31.886,2.3168 0.2582,-0.2582 -0.68709,-2.9978 -2.1005,-6.088 -5.30039,-11.5878 -6.5749,-16.9524 -6.5749,-27.6752 0,-9.1106 0.42491,-11.5204 4.0849,-23.165 l 4.0849,-12.9965 -1.68009,-4.3994 c -1.33391,-3.4928 -1.4292,-4.7018 -0.4625,-5.8667 2.5565,-3.0803 6.3833,-1.6799 20.2468,7.4094 7.7102,5.055 9.726,6.8612 9.726,8.7148 0,3.2562 -2.5073,4.2323 -9.5822,3.7307 -4.2531,-0.3016 -6.3838,-0.039 -7.085,0.8733 -0.5515,0.7175 -2.2514,4.8896 -3.7775,9.2713 -2.4319,6.9819 -2.7259,9.0876 -2.3783,17.0351 0.4401,10.0617 2.3994,14.9152 11.7024,28.9878 4.1099,6.217 24.7872,28.0722 34.1206,36.0643 9.4459,8.0885 31.414,23.4462 33.538,23.4462 0.2595,0 2.8321,1.2151 5.7169,2.7002 4.9914,2.5697 5.9224,2.6967 19.2451,2.6254 12.6576,-0.068 14.6702,-0.3311 20.9895,-2.7456 7.3391,-2.8043 14.9816,-6.9245 17.5041,-9.4369 2.0841,-2.0756 5.9651,-9.134 7.3767,-13.4158 0.8955,-2.7166 3.5622,-3.243 5.6556,-1.1163 6.3575,6.4588 11.105,19.1587 9.1435,24.4591 -0.8315,2.2468 -1.4179,2.4318 -7.7843,2.4562 -6.5984,0.025 -7.1974,0.2369 -14.3851,5.0819 -10.6255,7.1624 -15.3365,8.3918 -32.157,8.3918 -15.2683,0 -25.7957,-1.6667 -34.2112,-5.4163 -6.0122,-2.6788 -17.8761,-10.6522 -33.7682,-22.6947 -24.1629,-18.3099 -37.4388,-24.8699 -58.3636,-28.8391 -30.6625,-5.8163 -32.3754,-5.9791 -34.7244,-3.2999 -2.4633,2.8094 -4.7756,7.9502 -4.7756,10.6174 0,2.5694 0.7736,2.8725 13.1298,5.143 6.9549,1.2781 13.9602,9.3006 9.9809,11.4303 -1.7775,0.9513 -12.1507,2.3587 -30.1107,4.0853 -5.77501,0.5552 -11.542207,1.2425 -12.815907,1.5273 -2.7981,0.6257 -5.4308,6.2879 -4.9899,10.7321 0.337,3.3969 -0.012,3.2312 14.305807,6.802 33.7399,8.4148 34.5,8.689 34.5,12.446 0,5.0384 -4.3975,10.575 -7.0817,8.9161 -0.8385,-0.5183 -15.3858,-4.3257 -37.918307,-9.9244 -15.0588,-3.7417 -15.5291,-3.7975 -17.0043,-2.02 -2.1182,2.5524 -7.92,20.8766 -6.9721,22.0211 0.8758,1.0576 4.1596,2.2796 11.9764,4.4568 20.624497,5.7446 42.939807,16.1291 64.883707,30.1939 3.0286,1.9411 6.8828,2.2198 12.00029,0.8676 z m 154.7827,-318.7112 c -2.2955,-2.2955 0.8499,-10.7833 5.8483,-15.7817 8.6038,-8.6038 23.4395,-11.9353 50.485,-11.337 l 15.5,0.3428 9.25,4.3987 c 12.7817,6.0782 12.3103,8.6826 -2.317,12.8032 -15.6515,4.4091 -20.5644,5.2272 -55.5463,9.2501 -9.8631,1.1342 -22.2371,1.3068 -23.22,0.3239 z m -57,-21 c -2.9588,-2.9588 2.7379,-15.8012 9.9699,-22.4761 3.7352,-3.4475 13.8893,-9.8573 15.6154,-9.8573 0.7414,0 1.7755,-0.4039 2.298,-0.8976 1.5631,-1.4771 15.325,-6.7639 24.95,-9.5849 13.3391,-3.9096 14.342,-4.1749 22.5,-5.9516 4.125,-0.8984 8.85,-2.0386 10.5,-2.5339 2.8416,-0.8529 7.5049,-1.3706 10.25,-1.1379 2.3787,0.2016 1.2358,4.7625 -2.1989,8.7752 -5.2869,6.1766 -14.5117,11.5923 -32.0511,18.8167 -8.8,3.6246 -16.9,7.0055 -18,7.5131 -1.1,0.5075 -7.85,3.6894 -15,7.0708 -12.696,6.0043 -24.8997,10.9301 -27.079,10.9301 -0.5982,0 -1.3877,-0.3 -1.7543,-0.6666 z m -15.2817,93.2018 c 3.4162,-5.2137 1.0904,-10.7132 -5.3461,-12.6417 -2.1388,-0.6408 -4.574,-0.9021 -5.4114,-0.5808 -2.0031,0.7687 -3.7945,7.6023 -3.0148,11.5007 0.6699,3.3499 1.7433,3.8945 8.0223,4.0706 3.3623,0.094 4.4367,-0.3445 5.75,-2.3488 z M 612.5985,751.8777 c -7.30229,-0.3431 -15.0521,-2.0001 -23.08695,-4.9361 -12.4537,-4.5508 -16.85299,-13.2878 -12.0333,-23.8981 2.621,-5.7703 7.1972,-9.2673 13.16275,-10.0587 2.7266,-0.3617 4.9575,-0.9596 4.9575,-1.3287 0,-1.1245 -11.24325,-3.0712 -17.73755,-3.0712 -5.4175,0 -6.3543,-0.3015 -8.1898,-2.6349 -4.8074,-6.1116 -0.7741,-18.9885 6.7227,-21.4626 7.2566,-2.3949 21.12945,2.4435 31.18245,10.8755 8.467,7.1017 14.0329,13.4604 13.7619,15.722 -0.2247,1.8747 -0.9256,1.99 -11.1931,1.8405 l -10.9534,-0.1594 7.9636,4.1594 c 8.0783,4.2194 13.5955,7.7376 16.6025,10.5871 15.4461,14.637 18.0221,17.9439 15.9359,20.4576 -2.0667,2.4903 -15.6294,4.4463 -27.0952,3.9076 z m 90.31151,-3.9234 c -0.9019,-2.3502 2.27179,-7.789 9.5519,-16.3694 7.3446,-8.6564 9.9607,-11.1078 19.8231,-18.5753 9.7593,-7.3894 15.43449,-9.7563 21.81349,-9.0973 6.8353,0.7061 13.66201,3.9541 17.50121,8.3267 2.8468,3.2424 3.133,4.1049 2.55719,7.7063 -1.13589,7.1029 -2.56569,8.9454 -8.0584,10.384 -6.0075,1.5733 -10.0367,2.6607 -18,4.8575 -3.29999,0.9104 -11.9465,4.5224 -19.21439,8.0266 -11.77291,5.6764 -13.87621,6.3715 -19.2814,6.3715 -4.6863,0 -6.2094,-0.3711 -6.6927,-1.6306 z M 695.599,722.8349 c 10e-4,-10.5803 15.1777,-35.2596 24.3628,-39.6182 4.6061,-2.1857 12.3172,-2.0839 16.6523,0.2198 4.7615,2.5304 7.0199,8.919 4.508,12.7527 -0.9235,1.4095 -3.1067,3.2068 -4.8514,3.9941 -6.7789,3.0588 -15.7786,9.4577 -23.3554,16.606 -5.6248,5.3066 -12.8758,9.7175 -16.0668,9.7736 -0.7818,0.014 -1.2498,-1.3827 -1.2495,-3.728 z m -18.73479,-31.5802 c 0.43499,-5.7513 1.4237,-9.1686 4.5905,-15.8658 6.0884,-12.8757 12.2605,-16.6812 19.4094,-11.9672 8.8166,5.8136 7.4719,13.3574 -4.4129,24.7559 -6.16,5.908 -13.99541,10.4073 -18.1242,10.4073 -1.8899,0 -1.9822,-0.4626 -1.4628,-7.3302 z m -44.4701,3.932 c -8.99621,-3.2416 -22.53111,-15.1249 -27.2882,-23.9583 -1.6795,-3.1186 -1.7372,-3.9173 -0.5437,-7.5335 1.7493,-5.3005 7.0865,-9.11 12.7633,-9.11 5.0018,0 9.0823,3.0967 13.7896,10.4651 4.0931,6.407 8.6916,21.3042 8.2874,26.8479 -0.3482,4.7756 -1.4489,5.2921 -7.0084,3.2888 z"
   id="path843"
   inkscape:connector-curvature="0"
   sodipodi:nodetypes="csccssccscccccscccsccccccssccccccccscscccccscccsscccccscsscccscscscscssssscccccccccccscccccscsccccccsccsccscccccccccccsccsscccsccsccsccscssscccsccccscscccscscccccsccscccsscscccscccccccccccccscccccscccccccccccccsccsccccscsccsccccccscccscssccccccccccccccccccscccccsscccscccsscsscccccccsccsccccccscccccccccccsccsccccscsscccccccccccccccccccccsccccccccccccccccsccsscscccscsccccccssscccsccccsccccccccccccccccccssscccccccccsccscscccscsccssssccscccccccccccsccsscccccccsccccccsccccsscccscccccsscscscccccscccsscccccccsccccscssccccccscccccscscsccsccccccsscccccccsccsccccsccsccsccccscscccsscsscsccccccccccccsccccscccscscccscssccccsccccccscccccccccsccccsccccscscsccccssscccccsscscccccscccssccccccccccsscccccccccccccccccccscccccccccccccsccccscsc" /></svg>