<?xml version="1.0" encoding="UTF-8" standalone="no"?>
<!-- Generator: Adobe Illustrator 25.4.1, SVG Export Plug-In . SVG Version: 6.00 Build 0)  -->

<svg
   xmlns:dc="http://purl.org/dc/elements/1.1/"
   xmlns:cc="http://creativecommons.org/ns#"
   xmlns:rdf="http://www.w3.org/1999/02/22-rdf-syntax-ns#"
   xmlns:svg="http://www.w3.org/2000/svg"
   xmlns="http://www.w3.org/2000/svg"
   xmlns:sodipodi="http://sodipodi.sourceforge.net/DTD/sodipodi-0.dtd"
   xmlns:inkscape="http://www.inkscape.org/namespaces/inkscape"
   version="1.1"
   id="svg43"
   inkscape:version="0.92.5 (2060ec1f9f, 2020-04-08)"
   sodipodi:docname="rmutt.svg"
   x="0px"
   y="0px"
   viewBox="0 0 128 64"
   xml:space="preserve"
   width="128"
   height="64"><metadata
   id="metadata31"><rdf:RDF><cc:Work
       rdf:about=""><dc:format>image/svg+xml</dc:format><dc:type
         rdf:resource="http://purl.org/dc/dcmitype/StillImage" /><dc:title></dc:title></cc:Work></rdf:RDF></metadata><defs
   id="defs29" />
<style
   type="text/css"
   id="style2">
	.st0{fill:#FBFBFB;}
	.st1{fill:#231F20;stroke:#231F20;stroke-width:0.25;stroke-miterlimit:10;}
	.st2{fill:#231F20;stroke:#231F20;stroke-width:0.75;stroke-miterlimit:10;}
	.st3{fill:#DC2126;}
</style>
<sodipodi:namedview
   bordercolor="#666666"
   borderopacity="1"
   gridtolerance="10"
   guidetolerance="10"
   id="namedview45"
   inkscape:current-layer="svg43"
   inkscape:cx="-8.0168459"
   inkscape:cy="61.632854"
   inkscape:pageopacity="0"
   inkscape:pageshadow="2"
   inkscape:window-height="1016"
   inkscape:window-maximized="1"
   inkscape:window-width="1848"
   inkscape:window-x="72"
   inkscape:window-y="27"
   inkscape:zoom="2.964055"
   objecttolerance="10"
   pagecolor="#ffffff"
   showgrid="false">
	</sodipodi:namedview>
<g
   id="Layer_5"
   transform="translate(0,-1536)">
</g>

<path
   inkscape:connector-curvature="0"
   d="m 47.071886,15.105262 c -0.44318,0.580169 -1.32955,2.11923 -1.63173,2.69537 -0.71715,1.353729 -0.5439,1.107959 -1.22883,2.481839 -0.39483,0.78967 -1.28926,2.07491 -2.23606,2.03462 -0.97904,-0.0403 -1.70828,-0.5842 -2.05477,-1.56323 -0.34246,-0.96695 -0.56808,-1.98225 -0.88637,-2.957258 -0.16922,-0.519735 -0.43513,-1.003209 -0.68895,-1.57935 -0.92263,0.801762 -2.82027,18.166558 -3.17482,21.425978 -0.14101,1.2933 -0.4875,2.32471 -1.35775,3.19093 -1.55518,1.55115 -2.43349,3.42058 -2.4617,5.72917 -0.008,0.59226 -0.13295,1.21272 -0.34649,1.76065 -0.12489,0.32635 -0.51973,0.53988 -0.92665,0.93472 -0.2498,-0.48347 -0.44722,-0.74133 -0.52377,-1.03544 -0.50765,-1.9903 -0.10475,-3.96449 0.22159,-5.91047 0.46736,-2.80415 1.09185,-5.5801 1.56727,-8.38425 0.35857,-2.12326 0.63657,-10.05627 0.87428,-12.19968 0.45527,-4.11759 0.88234,-8.23921 1.26509,-12.368887 0.0927,-0.983065 0.22965,-1.92584 0.53988,-2.796095 0.42707,-1.196599 2.21995,-1.373873 2.94114,-0.298143 0.004,0.0081 0.008,0.01209 0.0121,0.02014 1.23286,1.825117 2.4617,3.658291 3.19899,5.793637 0.278,0.797732 0.47139,1.680073 1.51892,2.099085 0.35858,-0.318288 0.85817,-0.620459 1.1684,-1.075731 0.62045,-0.906515 1.1281,-1.897637 1.69215,-2.844442 0.69701,-1.164367 1.35776,-2.360967 2.13535,-3.464901 0.42707,-0.608372 1.01127,-1.132136 1.61561,-1.547118 0.98709,-0.676864 2.17161,-0.22965 2.59062,0.938746 0.16921,0.475417 0.24979,1.011268 0.24979,1.518917 -0.004,4.109533 0.8904,8.061936 1.809,12.018362 0.19339,0.82594 0.33441,1.65993 0.49959,2.48991 0.21757,1.11602 1.4464,9.37134 1.9057,10.40679 0.62046,1.40206 1.07573,2.88876 1.59547,4.33918 0.18533,0.51972 0.22965,1.13214 -0.24174,1.40206 -0.37469,0.21354 -1.00724,0.28607 -1.36582,0.0886 -0.70506,-0.38678 -1.36984,-0.92666 -1.91778,-1.53503 -2.28442,-2.53824 -4.6897,-12.73149 -5.51161,-16.16013 -0.2095,-0.81788 0.25383,-4.915324 -0.84608,-5.648594 z m -34.76181,1.240918 c -0.25786,0.165187 -0.32635,0.459301 -0.15713,0.688951 2.72357,3.71873 4.01686,22.35264 2.70745,22.35264 -1.36178,0 -1.95001,-5.26182 -2.29247,-6.99024 -0.29009,-1.45042 -2.19578,-6.28919 -2.41334,-7.7517 -0.31829,-2.15549 -1.1966001,-4.13371 -2.2924801,-6.05552 -0.0645,-0.11281 -0.15713,-0.23368 -0.27397,-0.30218 -0.11684,-0.0685 -0.30217,-0.13295 -0.41901,-0.0967 -0.19742,0.0564 -0.41901,0.16519 -0.52779,0.31023 -0.11281,0.15713 -0.16922,0.38678 -0.14102,0.57211 0.29009,1.90973 0.25383,4.49631 -0.44721,6.3456 -0.22159,0.58823 -0.69701,1.12811 -1.36581,1.38596 -0.67284,0.25786 -1.54309,0.18131 -2.05074,-0.26993 -0.77356,-0.6809 0.0524,-2.61077 0.0645,-3.50117 0.0161,-1.47459 -0.1249,-2.94516 -0.16116,-4.41573 -0.0604,-2.538242 -0.37066,-5.068425 -0.49959,-7.606666 -0.0604,-1.1966 -0.0725,-2.409315 0.10476,-3.593827 0.26591,-1.748567 1.27717,-2.473778 3.25136,-2.489894 1.87749,-0.01612 3.67038,0.334403 5.3182201,1.148252 1.38596,0.684922 2.43752,1.611582 2.95725,2.957252 0.24577,0.632546 0.57614,1.240918 0.80982,1.877493 0.81788,2.219954 0.31829,3.654261 -1.76065,5.16109 -0.12087,0.08864 -0.2498,0.173245 -0.41095,0.273969 z M 7.7291559,9.090034 c -0.0403,-0.004 -0.0806,-0.0081 -0.12087,-0.0081 -0.95889,0.004 -1.57935,0.330374 -1.72037,0.838022 -0.16921,0.612401 0.19339,1.035441 0.71313,1.357758 0.68492,0.42304 1.37387,0.858167 2.12326,1.180483 C 9.993426,13.006135 11.032896,12.341358 10.936196,11.10044 10.867696,10.246301 10.287536,9.569437 9.3447659,9.343816 8.7766759,9.21086 8.1884559,9.158484 7.7291559,9.089992 Z M 76.032008,12.051315 C 74.073937,12.212473 72.563079,11.68468 71.269785,10.520312 70.899121,10.185909 70.51637,9.851506 70.214199,9.45264 69.251279,8.175461 69.154584,6.52359 69.936201,5.363251 70.806455,4.065928 72.6356,3.501874 74.053792,4.114275 c 0.451243,0.19339 0.910544,0.390809 1.317468,0.664777 2.095056,1.402076 4.387531,1.607553 6.784758,1.394019 1.208687,-0.108782 2.437518,-0.124898 3.650233,-0.0282 1.381931,0.112811 2.00239,0.878312 2.143403,2.340823 0.217564,2.30859 -0.894428,4.270691 -3.162729,5.563985 -0.141013,-0.07655 -0.362605,-0.11684 -0.414982,-0.237708 -0.69298,-1.651871 -2.058795,-1.748566 -3.472958,-1.736479 -0.58017,0.004 -0.890399,0.419011 -1.00321,0.950833 -0.08461,0.410953 -0.104753,0.870254 -0.0282,1.281207 0.330374,1.77274 0.310229,3.593827 0.942775,5.330309 0.636575,1.75662 0.19339,3.41655 -1.07976,4.7461 -0.817877,0.85414 -1.817058,1.13617 -2.916963,0.68493 -1.043499,-0.42707 -1.450423,-1.36985 -1.486684,-2.45767 -0.0282,-0.85413 0.07655,-1.72036 0.201448,-2.56644 0.374693,-2.546297 0.495561,-5.112741 0.503619,-7.993443 z m 21.587136,39.890676 c -0.0282,-0.44319 0.467358,-1.9057 0.108782,-2.11521 -0.527793,-0.3062 -1.257034,0.8904 -1.792885,1.01933 -0.995152,0.23368 -2.15549,-0.42304 -2.937107,-0.95486 -1.482655,-1.00724 -1.950014,-1.95807 -2.010448,-3.79528 -0.07252,-2.20786 0.398866,-4.23845 1.571292,-6.05551 1.055586,-1.63576 2.514067,-2.53018 4.347241,-2.62688 2.445575,-0.12893 4.367381,1.531 4.536601,4.19414 0.13295,2.11923 -0.0161,4.26666 -0.16922,6.39395 0,3.98866 -1.647837,8.07402 -2.558381,11.97808 -0.0564,0.24174 -0.120868,0.49556 -0.302171,0.67686 -0.181303,0.18533 -0.523764,0.26591 -0.729241,0.10476 -0.157129,-0.12087 -0.185332,-0.33038 -0.197419,-0.51571 -0.141013,-1.71231 -0.354548,-3.20705 -0.104752,-4.9113 0.1531,-1.0717 0.310229,-2.14743 0.253824,-3.22719 a 0.74132753,0.74132753 0 0 1 -0.01612,-0.16518 z m -0.697009,-5.3424 c 0.233679,-1.30538 0.298142,-2.53421 0.0967,-3.89196 -0.06849,-0.46333 -0.745357,-0.48751 -0.846081,-0.0322 -0.310229,1.36985 -0.42304,2.61479 -0.08864,3.95643 0.108782,0.4311 0.761473,0.40693 0.838023,-0.0322 z m 7.151385,-34.951172 c -0.49959,2.433489 -0.95083,4.794456 -1.48265,7.135282 a 24.620938,24.620938 0 0 1 -1.05559,3.42864 c -0.34649,0.88637 -0.95889,1.62769 -1.804965,2.02656 -0.330374,0.15713 -0.84608,0.22965 -1.120049,0.0604 -0.269939,-0.16922 -0.467358,-0.69701 -0.475416,-1.07171 -0.01612,-1.28523 0.09669,-2.5745 0.100724,-3.85974 0.0081,-1.978212 -0.01209,-3.960457 -0.06446,-5.938674 -0.04432,-1.591437 -0.302172,-1.954043 -1.784827,-2.27233 -1.788856,-0.382751 -3.404466,-1.107962 -4.818629,-2.336793 -0.898457,-0.777588 -1.253005,-1.748567 -1.083789,-2.973369 0.237709,-1.73245 1.067673,-2.582559 2.751776,-2.679254 1.821087,-0.104753 3.569653,0.334403 5.217495,1.087817 1.92986,0.88637 3.96449,1.539061 5.68082,2.920992 0.43513,0.35052 1.01933,0.527794 1.56323,0.672836 1.80498,0.479445 3.62606,0.902486 5.43506,1.361786 0.31426,0.08058 0.64061,0.181303 0.90249,0.370664 0.16921,0.120869 0.33037,0.419011 0.31829,0.628517 -0.0121,0.209505 -0.20145,0.519735 -0.37873,0.584198 -0.44721,0.169216 -0.92666,0.290085 -1.39804,0.318288 -1.93793,0.120868 -3.88391,0.197418 -5.82184,0.302171 -0.16116,0.004 -0.31023,0.100724 -0.68089,0.233679 z m 12.68718,30.885962 c -1.83318,0.29411 -3.75096,0.44722 -4.93547,-0.30217 -0.75341,-0.47945 -0.93472,-1.20466 -0.53988,-2.03462 0.83399,-1.76871 3.09827,-3.11438 4.76222,-2.33277 2.54227,1.1966 4.86295,1.16437 7.25212,-0.28202 0.38275,-0.23368 0.96695,-0.18936 1.43834,-0.11684 1.01932,0.15713 1.62769,1.32149 1.01932,2.1716 -1.79288,2.50198 -2.18772,5.72111 -3.7711,8.33591 -0.6124,1.00723 -0.78162,2.3247 -1.17645,3.48907 -0.39081,1.1684 -0.78162,2.33679 -1.22883,3.47699 -0.18936,0.47944 -0.50765,0.91457 -0.81385,1.32955 -0.71313,0.96292 -1.41417,1.27315 -2.087,0.97904 -0.90652,-0.39484 -1.61158,-1.44237 -1.45848,-2.52616 0.14907,-1.03544 0.48347,-2.05073 0.84205,-3.0338 0.29008,-0.7937 1.6277,-4.77431 2.7276,-7.3891 0.41901,-0.99112 -0.42304,-2.04671 -1.48265,-1.86137 -0.18131,0.0363 -0.36261,0.0685 -0.54794,0.0967 z M 66.519648,9.525161 c 0.918601,0.53988 1.510858,1.434307 1.611581,2.421401 0.221593,2.183693 0.414983,4.319039 0.05238,6.490649 -0.213535,1.28523 -0.282027,2.59464 -1.30941,3.50116 -1.200628,1.05961 -2.497952,1.92181 -4.117591,2.03059 -1.563234,0.10475 -3.062005,-0.0886 -4.472142,-0.91054 -1.82914,-1.06365 -2.67523,-2.72358 -2.34082,-4.91936 0.33843,-2.232037 1.30941,-4.246514 2.03059,-6.345599 0.0524,-0.1531 0.16922,-0.330374 0.30217,-0.390809 0.27397,-0.132955 0.5842,-0.282027 0.86623,-0.257853 0.17727,0.01612 0.40692,0.302172 0.483475,0.519735 0.112811,0.314259 0.149071,0.672836 0.141013,1.011268 -0.01612,0.688951 -0.108782,1.373873 -0.120868,2.062824 -0.01209,0.684922 -0.0282,1.38596 0.08058,2.058796 0.213534,1.341638 1.055586,2.159518 2.070882,2.135348 0.979036,-0.0242 1.740508,-0.66478 1.986274,-1.917785 0.181303,-0.914572 0.185332,-1.873463 0.217564,-2.816239 0.04835,-1.46251 0,-2.929049 0.08864,-4.39156 0.06043,-0.991122 0.680893,-1.265091 1.555176,-0.781617 0.294114,0.161159 0.57614,0.322317 0.874283,0.499591 z m 37.275872,43.64163 c 0.15713,-2.38917 0.0886,-4.22638 -0.26188,-6.09581 -0.44721,-2.38917 0.21354,-4.593 1.6277,-6.4987 0.53585,-0.72521 1.22883,-1.18048 2.09506,-1.26106 1.20062,-0.11281 2.05073,0.92263 1.79288,2.21592 -0.0846,0.42304 -0.24577,0.85817 -0.47139,1.21272 -0.71312,1.12004 -0.73327,2.30456 -0.47541,3.58173 0.60837,3.0056 0.19339,6.03941 0.14101,9.06112 -0.0242,1.35776 -0.81788,2.30859 -2.01448,2.75984 -1.1966,0.45124 -2.45363,-0.33441 -2.4214,-1.74857 0.004,-0.17727 -0.008,-0.35455 -0.008,-0.53585 -0.004,-1.06767 -0.004,-2.13535 -0.004,-2.69134 z m -18.625844,-1.33762 c 0.004,-0.13295 0.01209,-0.25382 0.02014,-0.36663 0.241737,-3.5898 0.326345,-7.21586 0.467358,-10.8258 0.09267,-2.28038 0.729241,-3.11035 2.771921,-3.83556 0.463329,-0.16519 0.942775,-0.31023 1.422221,-0.39887 0.608372,-0.10878 1.120049,0.46736 0.99918,1.15228 -0.104753,0.60838 -0.22965,1.23689 -0.483474,1.7808 -0.701038,1.48669 -0.858168,3.05395 -0.757444,4.67358 0.108782,1.68411 0.237709,3.36418 0.406925,5.04426 0.1531,1.53503 0.07655,3.0338 -0.487504,4.45602 -0.398866,1.00321 -0.991122,1.84929 -2.042679,2.14743 -2.248157,0.64866 -2.38917,-2.20787 -2.316649,-3.82751 z m -60.43431,-24.82238 c -0.0363,0.23771 -0.0564,0.45125 -0.10072,0.66075 -0.13296,0.63255 -0.64464,1.01933 -1.20869,0.82191 -1.16437,-0.41096 -2.23607,-1.0153 -3.07006,-2.01851 -0.38678,-0.46736 -0.54391,-1.00724 -0.43513,-1.59949 0.0927,-0.49154 0.24174,-0.97501 0.41498,-1.43834 0.28203,-0.75341 0.86623,-1.06364 1.59547,-1.11602 0.80982,-0.0564 1.5028,0.19339 1.89764,0.97098 0.58822,1.16034 0.80176,2.44154 0.90651,3.71872 z"
   style="fill:#1f2333;stroke-width:0.40289539;fill-opacity:1"
   id="path2" /></svg>